<svg xmlns="http://www.w3.org/2000/svg" xmlns:xlink="http://www.w3.org/1999/xlink" version="1.1" x="0px" y="0px" viewBox="0 0 100 125" style="enable-background:new 0 0 100 100;" xml:space="preserve"><title>BS-Tick-Solid-Rounded-Shield</title><path d="M81,12.7L50,5l-31,7.7c-3.7,0.9-6.3,4.2-6.2,8v40.5c0,2.4,1,4.6,2.8,6.2l29,25.5c3.1,2.7,7.8,2.7,10.9,0l29-25.5  c1.8-1.6,2.8-3.8,2.8-6.2V20.7C87.2,16.9,84.7,13.6,81,12.7z M44.6,65.1L27.5,48l6.2-6.2l10.9,10.9L66.3,31l6.2,6.2L44.6,65.1z"/><text x="0" y="115" fill="#000000" font-size="5px" font-weight="bold" font-family="'Helvetica Neue', Helvetica, Arial-Unicode, Arial, Sans-serif">Created by blackspike</text><text x="0" y="120" fill="#000000" font-size="5px" font-weight="bold" font-family="'Helvetica Neue', Helvetica, Arial-Unicode, Arial, Sans-serif">from the Noun Project</text></svg>