<svg xmlns="http://www.w3.org/2000/svg" version="1.1" viewBox="-5.0 -10.0 110.0 135.0">
 <g>
  <path d="m81.25 100h-31.25c-1.7188 0-3.125-1.4062-3.125-3.125s1.4062-3.125 3.125-3.125h31.25c1.7188 0 3.125-1.4062 3.125-3.125v-6.25c0-1.7188 1.4062-3.125 3.125-3.125s3.125 1.4062 3.125 3.125v6.25c0 5.1562-4.2188 9.375-9.375 9.375z"/>
  <path d="m90.469 47.594c0.1875-0.8125 0.15625 0.46875 0.15625-6.9688 0-22.406-18.219-40.625-40.625-40.625s-40.625 18.219-40.625 40.625c0 7.4375-0.0625 6.1562 0.15625 6.9688-8.3125 5.7188-11.531 16.125-8.2812 25.312 0.5625 1.625 2.375 2.4688 4 1.9062s2.4688-2.375 1.9062-4c-3.1562-8.9375 2.3438-18.625 11.625-20.531v30.625c-1.6562-0.34375-3.2188-0.9375-4.6875-1.7812-1.5-0.875-3.4062-0.34375-4.2812 1.125-0.875 1.5-0.34375 3.4062 1.125 4.2812 5.9375 3.4375 10.625 2.9375 17.188 2.9375 5.1562 0 9.375-4.2188 9.375-9.375v-25c0-5.1562-4.2188-9.375-9.375-9.375-6.3125 0-8.6875-0.21875-12.5 0.90625v-4.0312c0-18.969 15.406-34.375 34.375-34.375s34.375 15.406 34.375 34.375v4.0312c-3.875-1.1562-6.2188-0.90625-12.5-0.90625-5.1562 0-9.375 4.2188-9.375 9.375v25c0 5.1562 4.2188 9.375 9.375 9.375h6.25c12.062 0 21.875-9.8125 21.875-21.875 0-7.4688-3.7812-14.094-9.5312-18.031zm-59.219 5.5312v25c0 1.7188-1.4062 3.125-3.125 3.125h-3.125v-31.25h3.125c1.7188 0 3.125 1.4062 3.125 3.125zm37.5 25v-25c0-1.7188 1.4062-3.125 3.125-3.125h3.125v31.25h-3.125c-1.7188 0-3.125-1.4062-3.125-3.125zm12.5 2.8125v-30.625c7.125 1.4375 12.5 7.75 12.5 15.312s-5.375 13.875-12.5 15.312z"/>
 </g>
<text x="0.0" y="117.5" font-size="5.0" font-weight="bold" font-family="Arbeit Regular, Helvetica, Arial-Unicode, Arial, Sans-serif" fill="#000000">Created by tezar tantular</text><text x="0.0" y="122.5" font-size="5.0" font-weight="bold" font-family="Arbeit Regular, Helvetica, Arial-Unicode, Arial, Sans-serif" fill="#000000">from Noun Project</text></svg>