<svg xmlns="http://www.w3.org/2000/svg" data-name="Layer 1" viewBox="0 0 600 529.3875" x="0px" y="0px"><defs><style>.cls-1{fill:none;}</style></defs><title>Truck-09</title><path class="cls-1" d="M1547.91,250.12l-.17,0-.19,0,.19,0Z" transform="translate(-1062.15 91.38)"/><path class="cls-1" d="M1542,249.5c-13.25.35-25.55,12-25.54,25.6C1516.46,261.48,1528.76,249.85,1542,249.5Z" transform="translate(-1062.15 91.38)"/><path class="cls-1" d="M1094.22,121.91h0Z" transform="translate(-1062.15 91.38)"/><path class="cls-1" d="M1241.26,251.59c5.93,3,9.62,8.92,9.56,16.39-.09,13.24-13,25.85-26.28,25.85a18.25,18.25,0,0,1-18.12-13.91,18.21,18.21,0,0,0,18.13,13.92h0c13.32,0,26.19-12.62,26.29-25.85C1250.9,260.51,1247.21,254.56,1241.26,251.59Z" transform="translate(-1062.15 91.38)"/><path class="cls-1" d="M1530.53,293.17c-.53-.12-1-.25-1.55-.4C1529.48,292.91,1530,293,1530.53,293.17Z" transform="translate(-1062.15 91.38)"/><path class="cls-1" d="M1553.43,285.43l.27-.27.4-.43-.4.43Z" transform="translate(-1062.15 91.38)"/><path class="cls-1" d="M1603.44,82.92q-17.83-31.58-35.6-63.2a15.4,15.4,0,0,0-13.47-8.32c-6.57-.23-13.13-.19-19.67,0-5.59.16-9.72,3-10.7,8.56q-7.48,41.23-14.45,82.55c-.87,5.09.24,7.83,3.61,9a15.38,15.38,0,0,0,4.76.65c12.5.07,25,0,37.51,0h38.7c5.72,0,9.52-2.53,11.12-7.95h0C1607.41,96.89,1607.3,89.73,1603.44,82.92Z" transform="translate(-1062.15 91.38)"/><path class="cls-1" d="M1560.33,262.28a16.12,16.12,0,0,0-12.43-12.16l-.17,0-.19,0a22.71,22.71,0,0,0-5.54-.54c-13.24.35-25.54,12-25.54,25.6,0,.07,0,.14,0,.21.08,8.91,4.36,15,12.52,17.45.5.15,1,.28,1.55.4l.14,0c9.13,2,16.51-1.54,22.76-7.77l.27-.27.4-.43C1560.08,278.46,1562.56,270.86,1560.33,262.28Z" transform="translate(-1062.15 91.38)"/><path class="cls-1" d="M1224.54,293.83c13.32,0,26.19-12.61,26.28-25.85.06-7.48-3.62-13.42-9.56-16.39a20.52,20.52,0,0,0-9.35-2.06c-13.52.08-26.16,12.68-26.06,26a19.4,19.4,0,0,0,.56,4.44A18.25,18.25,0,0,0,1224.54,293.83Z" transform="translate(-1062.15 91.38)"/><path d="M1144,204c11.18,0,22.37-.06,33.56-.07H1423.5c12.33,0,19.15-5.76,21.21-17.88,3.35-19.67,6.71-39.44,10.18-59.12,10.07-57.17,20-114.36,30.39-171.46,5.43-29.78-14-47.08-39.43-46.86-74.44.64-148.88.18-223.29.26a53.66,53.66,0,0,0-52.73,43.79c-2.48,13.45-4.83,26.91-7.18,40.33q-16.87,96.59-33.71,193.2C1126.75,198.74,1131.17,204,1144,204Z" transform="translate(-1062.15 91.38)"/><path d="M1555,211.38c-34.49-3-70.26,24.4-76.33,58.45-6.23,35,15.64,62.37,49.79,62.3,36.8-.07,70.87-33.48,71.67-70.28C1600.67,234.89,1581.75,213.72,1555,211.38Zm-.62,74.36-.29.28c-6.52,6.5-14.18,10.23-23.73,8.1l-.15,0c-.55-.13-1.09-.26-1.62-.42-8.54-2.54-13-8.91-13.06-18.2,0-.07,0-.14,0-.22,0-14.2,12.82-26.32,26.63-26.69a23.65,23.65,0,0,1,5.77.56l.2,0,.18,0a16.8,16.8,0,0,1,13,12.66c2.32,9-.22,16.84-6.5,23.43Z" transform="translate(-1062.15 91.38)"/><path d="M1560.33,262.27a16.12,16.12,0,0,0-12.43-12.15,16.12,16.12,0,0,1,12.43,12.16c2.22,8.58-.25,16.18-6.23,22.46C1560.12,278.42,1562.56,270.86,1560.33,262.27Z" transform="translate(-1062.15 91.38)"/><path d="M1516.45,275.31c0-.07,0-.14,0-.21s0,.14,0,.21c.08,8.91,4.33,15,12.52,17.45C1520.81,290.33,1516.54,284.22,1516.45,275.31Z" transform="translate(-1062.15 91.38)"/><path d="M1530.67,293.2l-.14,0,.14,0c9.16,2,16.51-1.53,22.76-7.77C1547.18,291.66,1539.8,295.24,1530.67,293.2Z" transform="translate(-1062.15 91.38)"/><path d="M1542,249.5a22.71,22.71,0,0,1,5.54.54A22.69,22.69,0,0,0,1542,249.5Z" transform="translate(-1062.15 91.38)"/><path d="M1243.69,211.31c-35.6-3-72.39,27.57-76.16,63.32-3.08,28.87,13.33,52.06,40,56.58,40.19,6.81,81.44-28.16,81.92-69.48C1289.82,234,1271.31,213.64,1243.69,211.31Zm-19.29,83.48h0a19,19,0,0,1-18.91-14.51,20.26,20.26,0,0,1-.59-4.64c-.11-13.85,13.09-27,27.17-27.06a21.43,21.43,0,0,1,9.76,2.16c6.19,3.09,10,9.3,10,17.1C1251.71,281.63,1238.28,294.84,1224.4,294.79Z" transform="translate(-1062.15 91.38)"/><path d="M1231.92,249.53a20.52,20.52,0,0,1,9.35,2.06,20.55,20.55,0,0,0-9.36-2.07c-13.51.08-26.16,12.68-26.06,26a19.43,19.43,0,0,0,.57,4.45,19.4,19.4,0,0,1-.56-4.44C1205.75,262.21,1218.4,249.61,1231.92,249.53Z" transform="translate(-1062.15 91.38)"/><path d="M1181.59,220.76c1.21-1.17,3.29-2.21,2.27-4.32-.84-1.74-2.85-1-4.32-1-6.94-.1-13.89,0-20.83,0h0c-7.14,0-14.29-.13-21.42,0-7.4.18-14.34,5-16,12a163.39,163.39,0,0,0-4.34,25.75c-1,14.27,9.17,24.71,23.36,25.24,11.8.43,11.8.43,14.44-11a2.54,2.54,0,0,1,.18-.57C1159.13,248.84,1168.26,233.61,1181.59,220.76Z" transform="translate(-1062.15 91.38)"/><path d="M1077.9-9h52.4a17.83,17.83,0,0,0,15.11-7.73c3.27-4.46,4.7-9.41,2-14.75-2.63-5.1-7.14-6.57-12.58-6.49-9,.13-17.9,0-26.85,0v.11c-10,0-20.1-.35-30.12.11-9.15.41-16.15,8.85-15.61,17.71C1062.65-12.68,1067.79-9,1077.9-9Z" transform="translate(-1062.15 91.38)"/><path d="M1134,57.57c2-7.24-2.15-15-9.19-15.21-16.08-.54-32.22-.65-48.3,0-8.38.35-14.87,9.42-14.23,17.55q.87,11,15.71,11h17.63v0c7,0,13.94.15,20.89,0C1125,70.56,1132,65.12,1134,57.57Z" transform="translate(-1062.15 91.38)"/><path d="M1108,121.91h-.5c-4.43-.11-8.83,0-13.23,0h-.51c-5.06,0-10.14-.18-15.23.05,4.75-.22,9.47-.09,14.17-.06-4.73,0-9.46-.17-14.21,0-9.14.42-16.53,8.31-16.33,17.13.18,7.87,5.57,11.75,16.28,11.7,7.87,0,15.74.11,23.54,0s13.77-3.7,17-11C1123.13,130.47,1118,122.24,1108,121.91Z" transform="translate(-1062.15 91.38)"/><path d="M1104.56,121.85c-3.43,0-6.87.06-10.32.06h0C1097.7,121.91,1101.14,121.83,1104.56,121.85Z" transform="translate(-1062.15 91.38)"/><path d="M1108,121.91c-1.16,0-2.31-.06-3.47-.06,1,0,2,0,2.93.05Z" transform="translate(-1062.15 91.38)"/><path d="M1094.24,121.91h0Z" transform="translate(-1062.15 91.38)"/><path d="M1094.26,121.91h0Z" transform="translate(-1062.15 91.38)"/><path d="M1078.52,122c5.09-.23,10.17-.06,15.23-.05h-1.06C1088,121.87,1083.26,121.74,1078.52,122Z" transform="translate(-1062.15 91.38)"/><path d="M1107.49,121.91c-1,0-2,0-2.93-.05-3.42,0-6.85.06-10.3.06C1098.65,121.91,1103.06,121.79,1107.49,121.91Z" transform="translate(-1062.15 91.38)"/><path d="M1661.2,125.43a49.77,49.77,0,0,0-5.9-34.88q-29-50.88-57.36-102.13c-5.77-10.53-14.14-15.53-25.94-15.52h-45.85c-20.47,0-34.43,12-37.91,32.19q-17.37,99.84-34.87,199.68c-1.28,7.31-5.25,10.68-12.65,10.69H1295.45c-3.79,0-6.22.55-3.19,4.86,11.33,16.1,13.47,34,9.84,52.81-.86,4.42.2,5.59,4.53,5.58q75-.15,150,0c4.08,0,5.9-1.28,6.6-5.61,4.82-30.79,25.85-57.63,54.05-70.21a87.8,87.8,0,0,1,17.39-5.71,81.87,81.87,0,0,1,28.39-1.48c14.65,2,27.84,9,38.74,22.45,12.79,15.83,15.57,34.27,11.8,53.93-1.18,6.24-.29,7.33,5.78,6.16,14-2.71,23.8-10.66,28.44-24.16,2.83-8.24,3.71-17,4.77-25.66.52-4.21-.82-8.11-4.45-10.39-2.6-1.63-2.61-3.22-2.13-5.9C1651.16,183.21,1656,154.28,1661.2,125.43Zm-131.08,12.83h-16.71c-3.93,0-5.15-3.22-5.15-7.15s5.22-7.15,9.15-7.15h16.71c3.93,0,5.15,3.22,5.15,7.15S1534.05,138.25,1530.12,138.25Zm75.12-34.07c-1.59,5.42-5.39,8-11.12,7.95h-38.7c-12.5,0-25,.07-37.51,0a15.38,15.38,0,0,1-4.76-.65c-3.37-1.14-4.48-3.89-3.61-9q7-41.31,14.45-82.55c1-5.57,5.11-8.4,10.7-8.56,6.54-.19,13.1-.23,19.67,0a15.4,15.4,0,0,1,13.47,8.32q17.76,31.61,35.6,63.2c3.87,6.81,4,14,1.79,21.25Z" transform="translate(-1062.15 91.38)"/><path d="M1552.79,269.21c-.18,8.41-8,16-16.38,16.06-7.8,0-12.8-6.24-11.38-14.24,1.39-7.78,9.56-14,17.44-13.36A11.06,11.06,0,0,1,1552.79,269.21Z" transform="translate(-1062.15 91.38)"/><path d="M1242.31,270.48c-.18,8.41-8,16-16.38,16.06-7.8,0-12.8-6.24-11.38-14.24,1.39-7.78,9.56-14,17.44-13.36A11.06,11.06,0,0,1,1242.31,270.48Z" transform="translate(-1062.15 91.38)"/><text x="0" y="438.51" fill="#000000" font-size="5px" font-weight="bold" font-family="'Helvetica Neue', Helvetica, Arial-Unicode, Arial, Sans-serif">Created by Rob Crosswell</text><text x="0" y="443.51" fill="#000000" font-size="5px" font-weight="bold" font-family="'Helvetica Neue', Helvetica, Arial-Unicode, Arial, Sans-serif">from the Noun Project</text></svg>